<svg xmlns="http://www.w3.org/2000/svg" width="200" height="200" fill="none">
    <path fill="#DD4C00" d="M103.963 186.729c-4.95.245-11.898.042-15.44-.452-3.541-.494-9.597-1.858-13.456-3.03-3.86-1.172-9.963-3.614-13.561-5.427-3.6-1.812-9.27-5.343-12.6-7.847-3.33-2.504-8.157-6.799-10.725-9.544-2.568-2.746-6.653-8.061-9.078-11.811-2.425-3.751-5.637-9.741-7.14-13.312-1.501-3.571-3.803-11.56-5.115-17.754-1.312-6.193-2.385-13.192-2.385-15.552 0-2.36.937-8.771 2.081-14.246 1.145-5.476 3.58-13.668 5.413-18.206 1.832-4.538 5.222-11.063 7.534-14.5 2.312-3.437 6.514-8.657 9.337-11.601 2.824-2.944 7.385-7.015 10.135-9.047 2.75-2.032 6.79-4.732 8.978-6 2.189-1.267 7.364-3.648 11.5-5.292 4.137-1.644 11.122-3.623 15.522-4.398 4.4-.774 11.203-1.41 15.119-1.41 3.915 0 11.11.695 15.987 1.545 5.416.945 12.551 3.162 18.329 5.696 5.204 2.282 12.955 6.782 17.225 10 4.27 3.217 9.821 8.258 12.337 11.203 2.515 2.944 6.728 8.938 9.361 13.319 2.633 4.38 5.995 11.62 7.471 16.086 1.476 4.466 3.115 12.286 3.642 17.377.623 6.022.608 12.664-.043 19.01-.551 5.364-2.166 13.243-3.589 17.508-1.424 4.265-3.662 9.603-4.975 11.862-2.387 4.108-2.387 4.108-.453 10.5 1.064 3.516 3.571 12.628 5.572 20.249 2 7.621 3.428 14.066 3.172 14.322-.255.255-9.17-1.86-19.81-4.702-10.64-2.841-19.795-5.211-20.345-5.267-.55-.055-4.048 1.347-7.774 3.116-3.726 1.769-10.476 4.103-15 5.187-4.524 1.084-12.276 2.172-17.226 2.418Zm-4.5-55.11c1.925-.197 4.949-.592 6.72-.879 1.772-.286 4.576-1.661 6.232-3.054 1.723-1.45 3.47-4.241 4.085-6.525.784-2.911.764-4.935-.074-7.473-.631-1.914-2.344-4.589-3.806-5.944-1.461-1.356-5.686-3.653-9.388-5.106-3.703-1.452-7.469-3.455-8.369-4.45-1.049-1.159-1.419-2.678-1.03-4.23.343-1.364 1.595-2.685 2.869-3.026 1.243-.333 3.881-.612 5.862-.62 1.98-.007 5.041.489 6.801 1.102 1.76.614 3.351.951 3.535.75.184-.2.643-2.231 1.019-4.512.685-4.146.685-4.146-6.492-5.429-5.689-1.017-8.117-1.03-11.715-.069-2.496.668-5.812 2.121-7.368 3.23-1.607 1.144-3.33 3.681-3.985 5.869-.635 2.119-.858 5.437-.494 7.373.411 2.194 1.916 4.623 3.994 6.448 1.834 1.61 5.716 3.781 8.628 4.826 2.911 1.044 6.572 3.092 8.135 4.55 1.562 1.458 2.841 3.114 2.841 3.679s-.68 1.707-1.512 2.539c-.832.831-3.419 1.783-5.75 2.114-2.5.356-6.491.004-9.73-.857-4.133-1.098-5.677-1.17-6.235-.293-.409.642-.75 2.611-.758 4.377-.013 2.864.389 3.32 3.735 4.237 2.062.565 4.875 1.186 6.25 1.38 1.375.193 4.075.19 6-.007Zm-36.896-.642c6.383-.209 12.12-.699 12.75-1.088.791-.489 1.145-6.183 1.144-18.399 0-14.867-.28-18.239-1.75-21.12-.961-1.886-2.873-4.233-4.248-5.216-1.375-.983-4.633-2.345-7.24-3.026-3.657-.956-6.26-.979-11.383-.1-3.654.625-6.985 1.505-7.403 1.954-.418.45-.532 2.278-.254 4.064.506 3.247.506 3.247 8.643 2.627 7.043-.536 8.446-.367 10.436 1.253 1.265 1.03 2.669 3.51 3.12 5.512.82 3.639.82 3.639-6.3 3.559-3.915-.044-8.784.483-10.82 1.172-2.034.688-5.072 2.815-6.75 4.726-2.66 3.031-3.05 4.224-3.05 9.362 0 4.938.436 6.406 2.701 9.098 1.486 1.765 4.073 3.837 5.75 4.606 2.232 1.022 6.161 1.295 14.654 1.016Zm-2.104-7.805c-1.925.008-5.041-.523-6.925-1.18-2.313-.806-3.723-2.096-4.344-3.975-.677-2.049-.517-3.396.607-5.112.84-1.281 2.963-2.616 4.72-2.968 1.755-.351 4.823-.631 6.817-.623 1.994.008 4.075.346 4.625.75.55.404 1 3.21 1 6.235 0 3.92-.431 5.695-1.5 6.18-.825.373-3.075.685-5 .693Zm67.966 7.127c4.966 0 4.966 0 5.25-10.664.284-10.663.284-10.663 6.54-4.345 3.441 3.475 7.491 8.273 9 10.662 2.668 4.224 2.888 4.343 7.994 4.345 3.816.001 5.25-.378 5.25-1.388 0-.765-2.051-4.176-4.557-7.58-2.506-3.404-6.986-8.698-9.955-11.764-5.399-5.574-5.399-5.574 4.208-15.67s9.607-10.096 3.961-10.396c-5.647-.3-5.647-.3-14.114 8.5s-8.467 8.8-8.505-11.578c-.038-20.378-.038-20.378-4.193-19.714-2.285.366-4.535.9-5 1.187-.465.288-.845 15.796-.845 34.464 0 33.941 0 33.941 4.966 33.941Z"/>
</svg>
