<svg width="24" height="24" viewBox="0 0 24 24" fill="none" xmlns="http://www.w3.org/2000/svg">
<path d="M22.2972 17.6797C18.5806 15.8801 17.9883 13.1015 17.9619 12.8954C17.93 12.6457 17.8939 12.4495 18.1692 12.1955C18.4347 11.9502 19.6126 11.2209 19.9395 10.9927C20.4797 10.6149 20.7176 10.2376 20.5422 9.77392C20.4196 9.45312 20.121 9.33229 19.8064 9.33229C19.7072 9.33259 19.6083 9.3437 19.5115 9.36541C18.9179 9.49422 18.3415 9.79171 18.0079 9.87206C17.9678 9.8824 17.9267 9.88796 17.8853 9.88862C17.7075 9.88862 17.64 9.8095 17.6572 9.59543C17.6989 8.94648 17.7872 7.67986 17.6848 6.49666C17.5443 4.86876 17.0195 4.06217 16.3971 3.34881C16.096 3.00287 14.6979 1.51666 11.9999 1.51666C9.30182 1.51666 7.90558 3.00287 7.60635 3.34452C6.98212 4.05788 6.45784 4.86447 6.31864 6.49236C6.21624 7.67556 6.30822 8.94157 6.34624 9.59113C6.3585 9.79477 6.29596 9.88433 6.11813 9.88433C6.07674 9.88362 6.03558 9.87806 5.99549 9.86777C5.66253 9.78741 5.08613 9.48993 4.49256 9.36112C4.39574 9.3394 4.29684 9.3283 4.19761 9.328C3.88182 9.328 3.58442 9.45067 3.46178 9.76963C3.28641 10.2333 3.5231 10.6106 4.06516 10.9884C4.39199 11.2166 5.56994 11.9453 5.83545 12.1912C6.11016 12.4452 6.07459 12.6414 6.04271 12.8911C6.01634 13.1003 5.42338 15.8788 1.70744 17.6754C1.48976 17.7809 1.11939 18.0042 1.77244 18.3649C2.7977 18.9316 3.48018 18.8709 4.01059 19.2125C4.46067 19.5027 4.19455 20.1283 4.52199 20.354C4.92425 20.6319 6.11322 20.3344 7.64927 20.8417C8.93697 21.2661 9.71941 22.4653 12.0029 22.4653C14.2865 22.4653 15.0916 21.2606 16.3566 20.8417C17.8896 20.3344 19.081 20.6319 19.4839 20.354C19.8107 20.1283 19.5452 19.5027 19.9953 19.2125C20.5257 18.8709 21.2076 18.9316 22.2334 18.3649C22.8853 18.0085 22.5149 17.7852 22.2972 17.6797Z" fill="white"/>
<path d="M23.9142 17.4685C23.7474 17.0146 23.4298 16.7717 23.068 16.5705C22.9999 16.5307 22.9374 16.4988 22.884 16.4742C22.7761 16.4184 22.6657 16.3644 22.556 16.3074C21.4283 15.7093 20.5478 14.9549 19.937 14.0606C19.7636 13.8088 19.6132 13.542 19.4876 13.2632C19.4354 13.1142 19.4379 13.0295 19.4753 12.9522C19.5124 12.8927 19.5615 12.8415 19.6194 12.8019C19.8132 12.6737 20.0131 12.5437 20.1486 12.456C20.3902 12.2996 20.5815 12.1757 20.7048 12.088C21.1677 11.7641 21.4915 11.42 21.6938 11.0354C21.835 10.7697 21.9173 10.4767 21.9352 10.1763C21.9531 9.87596 21.9061 9.57526 21.7975 9.29467C21.4909 8.48746 20.7287 7.98634 19.8052 7.98634C19.6104 7.98615 19.4162 8.00671 19.2257 8.04767C19.1748 8.05872 19.1239 8.07037 19.0743 8.08325C19.0829 7.53121 19.0706 6.94851 19.0215 6.375C18.8474 4.35884 18.1416 3.30199 17.4058 2.45921C16.9346 1.93109 16.3796 1.48429 15.763 1.13678C14.6464 0.498865 13.3802 0.175003 11.9999 0.175003C10.6196 0.175003 9.35948 0.498865 8.24163 1.13678C7.6236 1.48439 7.06746 1.93209 6.59582 2.46167C5.85999 3.30444 5.15421 4.36313 4.98006 6.37745C4.931 6.95096 4.91874 7.53673 4.92671 8.0857C4.87704 8.07282 4.82676 8.06117 4.77587 8.05013C4.58543 8.00917 4.39118 7.98861 4.1964 7.98879C3.27232 7.98879 2.50889 8.48992 2.20353 9.29712C2.09437 9.57783 2.04691 9.87875 2.06437 10.1794C2.08183 10.4801 2.1638 10.7735 2.3047 11.0397C2.50767 11.4243 2.83143 11.7684 3.29439 12.0923C3.41703 12.1781 3.60896 12.302 3.85056 12.4603C3.98117 12.5449 4.17187 12.6688 4.3589 12.7927C4.42433 12.8351 4.47995 12.8909 4.522 12.9565C4.56125 13.0369 4.56248 13.1234 4.50422 13.2828C4.38032 13.5557 4.23236 13.817 4.06211 14.0637C3.46486 14.9377 2.61007 15.6787 1.51859 16.2718C0.94035 16.5785 0.339422 16.7834 0.0855607 17.4734C-0.105755 17.9942 0.0193358 18.5867 0.505597 19.086C0.684059 19.2723 0.891048 19.4291 1.11879 19.5503C1.59266 19.8108 2.09654 20.0125 2.61927 20.1508C2.72714 20.1786 2.82955 20.2245 2.92219 20.2864C3.0994 20.4415 3.07426 20.6752 3.31034 21.0175C3.42884 21.1944 3.57942 21.3475 3.75429 21.4689C4.24975 21.8112 4.80653 21.8327 5.39642 21.8554C5.92928 21.8756 6.53327 21.8989 7.22311 22.1265C7.50886 22.2209 7.80565 22.4037 8.14965 22.6172C8.97562 23.1251 10.1063 23.82 11.9987 23.82C13.891 23.82 15.0297 23.1214 15.8618 22.6117C16.2033 22.4019 16.4983 22.2209 16.776 22.1289C17.4659 21.9008 18.0699 21.8781 18.6027 21.8578C19.1926 21.8351 19.7494 21.8137 20.2449 21.4714C20.452 21.3269 20.6245 21.1384 20.7501 20.9194C20.92 20.6305 20.9157 20.4287 21.0751 20.2876C21.162 20.2286 21.2582 20.1847 21.3596 20.1575C21.8895 20.0188 22.4003 19.8152 22.8804 19.5515C23.1223 19.4217 23.3401 19.2511 23.5242 19.0473L23.5303 19.04C23.9866 18.5517 24.1012 17.9764 23.9142 17.4685ZM22.2322 18.3726C21.2063 18.9394 20.5245 18.8787 19.9941 19.2203C19.5434 19.5104 19.8101 20.1361 19.4827 20.3618C19.0804 20.6397 17.8914 20.3422 16.3554 20.8494C15.0885 21.2684 14.2803 22.473 12.0017 22.473C9.7231 22.473 8.93392 21.2708 7.64622 20.8464C6.11324 20.3391 4.92181 20.6366 4.51894 20.3587C4.19211 20.133 4.45762 19.5074 4.00754 19.2172C3.47651 18.8756 2.79464 18.9363 1.76939 18.3726C1.11634 18.012 1.4867 17.7887 1.70439 17.6832C5.42033 15.8835 6.01329 13.105 6.03965 12.8989C6.07154 12.6492 6.10711 12.4529 5.8324 12.199C5.56688 11.9536 4.38894 11.2243 4.06211 10.9962C3.52128 10.6183 3.28336 10.2411 3.45873 9.77739C3.58137 9.4566 3.88061 9.33576 4.19456 9.33576C4.29378 9.33607 4.39268 9.34717 4.4895 9.36889C5.08307 9.49769 5.65948 9.79518 5.99244 9.87553C6.03253 9.88583 6.07369 9.89138 6.11508 9.89209C6.2929 9.89209 6.35545 9.80254 6.34318 9.5989C6.30517 8.94934 6.21319 7.68333 6.31559 6.50013C6.45601 4.87223 6.98029 4.06564 7.60329 3.35229C7.90253 3.00941 9.30858 1.5232 11.9974 1.5232C14.6863 1.5232 16.096 3.00328 16.3952 3.34493C17.0189 4.05828 17.5437 4.86487 17.6829 6.49277C17.7853 7.67597 17.697 8.94259 17.6553 9.59154C17.6412 9.80561 17.7056 9.88473 17.8835 9.88473C17.9248 9.88407 17.966 9.87851 18.0061 9.86817C18.3397 9.78782 18.9161 9.49033 19.5096 9.36152C19.6065 9.33981 19.7054 9.32871 19.8046 9.3284C20.1204 9.3284 20.4178 9.45108 20.5404 9.77003C20.7158 10.2337 20.4791 10.611 19.9377 10.9888C19.6108 11.217 18.4329 11.9457 18.1674 12.1916C17.892 12.4456 17.9282 12.6419 17.9601 12.8915C17.9865 13.1007 18.5788 15.8792 22.2954 17.6758C22.5149 17.7856 22.8853 18.0089 22.2322 18.3726Z" fill="black"/>
</svg>
