<svg width="24" height="24" viewBox="0 0 24 24" fill="none" xmlns="http://www.w3.org/2000/svg">
<path d="M12 24C18.6274 24 24 18.6274 24 12C24 5.37258 18.6274 0 12 0C5.37258 0 0 5.37258 0 12C0 18.6274 5.37258 24 12 24Z" fill="url(#paint0_linear_2_23)"/>
<path fill-rule="evenodd" clip-rule="evenodd" d="M5.43188 11.8733C8.93013 10.3492 11.2628 9.3444 12.43 8.85893C15.7625 7.47282 16.455 7.23203 16.9064 7.22408C17.0056 7.22234 17.2276 7.24694 17.3714 7.3636C17.4928 7.46211 17.5262 7.59518 17.5421 7.68857C17.5581 7.78197 17.578 7.99473 17.5622 8.16097C17.3816 10.0585 16.6002 14.6631 16.2027 16.7884C16.0345 17.6876 15.7032 17.9891 15.3826 18.0186C14.6857 18.0828 14.1565 17.5581 13.4816 17.1157C12.4254 16.4233 11.8288 15.9924 10.8036 15.3168C9.61883 14.536 10.3869 14.1069 11.0621 13.4056C11.2388 13.2221 14.3092 10.4294 14.3686 10.176C14.376 10.1443 14.3829 10.0262 14.3128 9.96385C14.2426 9.90148 14.139 9.92281 14.0643 9.93977C13.9584 9.96381 12.2711 11.079 9.00263 13.2853C8.52372 13.6142 8.08993 13.7744 7.70128 13.766C7.27282 13.7568 6.44863 13.5238 5.83593 13.3246C5.08443 13.0803 4.48715 12.9512 4.53916 12.5363C4.56625 12.3202 4.86382 12.0992 5.43188 11.8733Z" fill="white"/>
<defs>
<linearGradient id="paint0_linear_2_23" x1="12" y1="0" x2="12" y2="23.822" gradientUnits="userSpaceOnUse">
<stop stop-color="#2AABEE"/>
<stop offset="1" stop-color="#229ED9"/>
</linearGradient>
</defs>
</svg>
